<svg width="24" height="24" viewBox="0 0 24 24" fill="none" xmlns="http://www.w3.org/2000/svg">
<path d="M17.5991 6.5C17.8411 6.08059 17.978 5.60882 17.9981 5.125M6.00293 5.125C6.0227 5.60873 6.15926 6.0805 6.40093 6.5M3.47705 10.896C3.65999 10.747 3.85575 10.6145 4.06205 10.5M19.938 10.5C20.1443 10.6145 20.34 10.747 20.523 10.896M5.99996 17.9999C5.31079 18.0002 4.63323 17.8225 4.03296 17.4839M19.967 17.4839C19.3667 17.8225 18.6892 18.0002 18 17.9999M15.7 10.3999L14.8 10.7999M9.20005 13.2L8.30005 13.6M13.6 15.7L13.2 14.8M10.7999 9.20005L10.3999 8.30005M15.7 13.5001L14.8 13.1001M9.20005 10.9L8.30005 10.5M10.5 15.7L10.9 14.8M13.1001 9.20005L13.5001 8.30005M12.0001 4.99994C11.999 4.60068 11.9182 4.20566 11.7625 3.83802C11.6068 3.47037 11.3793 3.13751 11.0932 2.85894C10.8072 2.58037 10.4685 2.3617 10.0969 2.21573C9.72524 2.06976 9.32822 1.99945 8.92907 2.0089C8.52992 2.01835 8.13668 2.10738 7.77238 2.27077C7.40808 2.43416 7.08007 2.66863 6.80756 2.96042C6.53504 3.25222 6.32352 3.59547 6.18538 3.97007C6.04723 4.34467 5.98526 4.74308 6.00307 5.14194C5.41528 5.29308 4.86958 5.57599 4.40731 5.96925C3.94503 6.36252 3.57831 6.85582 3.33492 7.41179C3.09152 7.96777 2.97783 8.57184 3.00246 9.17826C3.02709 9.78467 3.18939 10.3775 3.47707 10.9119C2.97125 11.3229 2.5735 11.8512 2.31841 12.4509C2.06333 13.0506 1.95863 13.7035 2.01344 14.3529C2.06824 15.0023 2.28089 15.6285 2.63288 16.177C2.98487 16.7254 3.46554 17.1796 4.03307 17.4999C3.90953 18.4558 4.13524 19.4241 4.6687 20.2267C5.20216 21.0294 6.0075 21.6125 6.93658 21.8687C7.86567 22.125 8.85604 22.0371 9.72554 21.6214C10.595 21.2057 11.2852 20.49 11.6691 19.6059C11.7399 19.4292 11.7948 19.2465 11.8331 19.0599C11.8611 18.9299 12.1391 18.9299 12.1681 19.0599C12.2061 19.2464 12.2606 19.4292 12.3311 19.6059C12.715 20.49 13.4051 21.2057 14.2746 21.6214C15.1441 22.0371 16.1345 22.125 17.0636 21.8687C17.9927 21.6125 18.798 21.0294 19.3314 20.2267C19.8649 19.4241 20.0906 18.4558 19.9671 17.4999C20.5346 17.1796 21.0153 16.7254 21.3673 16.177C21.7193 15.6285 21.9319 15.0023 21.9867 14.3529C22.0415 13.7035 21.9368 13.0506 21.6817 12.4509C21.4266 11.8512 21.0289 11.3229 20.5231 10.9119C20.8108 10.3775 20.9731 9.78467 20.9977 9.17826C21.0223 8.57184 20.9086 7.96777 20.6652 7.41179C20.4218 6.85582 20.0551 6.36252 19.5928 5.96925C19.1306 5.57599 18.5849 5.29308 17.9971 5.14194C18.0149 4.74308 17.9529 4.34467 17.8148 3.97007C17.6766 3.59547 17.4651 3.25222 17.1926 2.96042C16.9201 2.66863 16.5921 2.43416 16.2278 2.27077C15.8635 2.10738 15.4702 2.01835 15.0711 2.0089C14.6719 1.99945 14.2749 2.06976 13.9033 2.21573C13.5317 2.3617 13.1929 2.58037 12.9069 2.85894C12.6209 3.13751 12.3934 3.47037 12.2376 3.83802C12.0819 4.20566 12.0012 4.60068 12.0001 4.99994ZM15 12C15 13.6569 13.6569 15 12 15C10.3431 15 9 13.6569 9 12C9 10.3431 10.3431 9 12 9C13.6569 9 15 10.3431 15 12Z" stroke="#0F172B" stroke-width="2" stroke-linecap="round" stroke-linejoin="round"/>
</svg>
