<svg width="24" height="24" viewBox="0 0 24 24" fill="none" xmlns="http://www.w3.org/2000/svg">
<path d="M10 20V22M14 20V22M18 20V22M21 20H3M6 20V22M8 16V4C8 3.46957 8.21071 2.96086 8.58579 2.58579C8.96086 2.21071 9.46957 2 10 2H14C14.5304 2 15.0391 2.21071 15.4142 2.58579C15.7893 2.96086 16 3.46957 16 4V16M6 6H18C19.1046 6 20 6.89543 20 8V14C20 15.1046 19.1046 16 18 16H6C4.89543 16 4 15.1046 4 14V8C4 6.89543 4.89543 6 6 6Z" stroke="#0F172B" stroke-width="2" stroke-linecap="round" stroke-linejoin="round"/>
</svg>
