<svg width="24" height="24" viewBox="0 0 24 24" fill="none" xmlns="http://www.w3.org/2000/svg">
<path d="M10.188 8.5C10.5206 7.21165 11.2721 6.07042 12.3242 5.25581C13.3763 4.4412 14.6694 3.99944 16 4C15.2043 4.79565 14.7573 5.87478 14.7573 7C14.7573 7.55715 14.8671 8.10885 15.0803 8.62359C15.2935 9.13833 15.606 9.60603 16 10C16.394 10.394 16.8617 10.7065 17.3764 10.9197C17.8911 11.1329 18.4428 11.2426 19 11.2426C20.1252 11.2426 21.2043 10.7956 22 10C22.0001 11.0534 21.723 12.0882 21.1964 13.0005C20.6697 13.9128 19.9122 14.6703 19 15.197M11 20V22M2.99994 20.0001C2.55048 19.4002 2.24164 18.707 2.09627 17.9716C1.9509 17.2363 1.97273 16.4777 2.16012 15.7519C2.34752 15.0261 2.6957 14.3518 3.1789 13.7788C3.6621 13.2057 4.26796 12.7487 4.95165 12.4414C5.63534 12.1341 6.37937 11.9845 7.1287 12.0036C7.87803 12.0227 8.61347 12.21 9.28063 12.5517C9.94778 12.8934 10.5296 13.3807 10.983 13.9776C11.4364 14.5745 11.7497 15.2657 11.8999 16.0001H12.9999C13.6084 15.9992 14.2027 16.1833 14.7041 16.5281C15.2055 16.8728 15.5902 17.3619 15.8071 17.9303C16.0241 18.4988 16.0631 19.1198 15.9189 19.7109C15.7748 20.302 15.4543 20.8353 14.9999 21.2401M7 19V21" stroke="#0F172B" stroke-width="2" stroke-linecap="round" stroke-linejoin="round"/>
</svg>
