<svg width="24" height="24" viewBox="0 0 24 24" fill="none" xmlns="http://www.w3.org/2000/svg">
<path d="M12.5861 12.5859L19.0001 18.9999M3.68805 3.03705C3.59699 2.99868 3.49656 2.98832 3.39958 3.0073C3.30261 3.02628 3.21349 3.07374 3.14362 3.14362C3.07374 3.21349 3.02628 3.30261 3.0073 3.39958C2.98832 3.49656 2.99868 3.59699 3.03705 3.68805L9.53705 19.6871C9.57707 19.7838 9.64641 19.8657 9.73533 19.921C9.82425 19.9763 9.92827 20.0024 10.0328 19.9956C10.1373 19.9887 10.237 19.9493 10.318 19.8829C10.3989 19.8164 10.457 19.7262 10.4841 19.6251L12.0531 13.5421C12.1366 13.1869 12.3156 12.8614 12.5708 12.6007C12.8261 12.34 13.1478 12.1541 13.5011 12.0631L19.6251 10.4841C19.7267 10.4577 19.8175 10.3999 19.8845 10.319C19.9515 10.2381 19.9913 10.1381 19.9983 10.0333C20.0053 9.92847 19.9791 9.82412 19.9234 9.73504C19.8677 9.64596 19.7853 9.57669 19.6881 9.53705L3.68805 3.03705Z" stroke="#0F172B" stroke-width="2" stroke-linecap="round" stroke-linejoin="round"/>
</svg>
