<svg width="24" height="24" viewBox="0 0 24 24" fill="none" xmlns="http://www.w3.org/2000/svg">
<path d="M21.44 11.05L12.25 20.24C11.1242 21.3658 9.59723 21.9983 8.00505 21.9983C6.41286 21.9983 4.88589 21.3658 3.76005 20.24C2.6342 19.1141 2.00171 17.5872 2.00171 15.995C2.00171 14.4028 2.6342 12.8758 3.76005 11.75L12.33 3.17997C13.0806 2.42808 14.0991 2.00515 15.1615 2.00421C16.2239 2.00328 17.2432 2.42441 17.995 3.17497C18.7469 3.92554 19.1699 4.94404 19.1708 6.00644C19.1717 7.06883 18.7506 8.08808 18 8.83997L9.41005 17.41C9.03476 17.7853 8.52577 17.9961 7.99505 17.9961C7.46432 17.9961 6.95533 17.7853 6.58005 17.41C6.20476 17.0347 5.99393 16.5257 5.99393 15.995C5.99393 15.4642 6.20476 14.9553 6.58005 14.58L15.07 6.09997" stroke="#0F172B" stroke-width="2" stroke-linecap="round" stroke-linejoin="round"/>
</svg>
