<svg width="24" height="24" viewBox="0 0 24 24" fill="none" xmlns="http://www.w3.org/2000/svg">
<path d="M14.7001 6.30001C14.5169 6.48694 14.4142 6.73826 14.4142 7.00001C14.4142 7.26176 14.5169 7.51308 14.7001 7.70001L16.3001 9.30001C16.487 9.48324 16.7383 9.58587 17.0001 9.58587C17.2619 9.58587 17.5132 9.48324 17.7001 9.30001L21.4701 5.53001C21.9729 6.6412 22.1252 7.87924 21.9066 9.07916C21.6879 10.2791 21.1088 11.3839 20.2464 12.2463C19.3839 13.1087 18.2792 13.6878 17.0792 13.9065C15.8793 14.1251 14.6413 13.9728 13.5301 13.47L6.6201 20.38C6.22227 20.7778 5.68271 21.0013 5.1201 21.0013C4.55749 21.0013 4.01792 20.7778 3.6201 20.38C3.22227 19.9822 2.99878 19.4426 2.99878 18.88C2.99878 18.3174 3.22227 17.7778 3.6201 17.38L10.5301 10.47C10.0273 9.35882 9.87502 8.12078 10.0936 6.92087C10.3123 5.72095 10.8914 4.61617 11.7538 3.75373C12.6163 2.8913 13.721 2.31218 14.921 2.09355C16.1209 1.87493 17.3589 2.02718 18.4701 2.53001L14.7101 6.29001L14.7001 6.30001Z" stroke="#0F172B" stroke-width="2" stroke-linecap="round" stroke-linejoin="round"/>
</svg>
