<?xml version="1.0" encoding="UTF-8"?> <svg xmlns="http://www.w3.org/2000/svg" width="360" height="30" viewBox="0 0 360 30" fill="none"> <path fill-rule="evenodd" clip-rule="evenodd" d="M6 0C2.68629 0 0 2.68629 0 6V24C0 27.3137 2.68629 30 5.99999 30H234C234.341 30 234.675 29.9716 235 29.917C235.325 29.9716 235.659 30 236 30H343.876H343.922H360L349.922 22.5V6C349.922 2.68629 347.236 0 343.922 0H236C235.659 0 235.325 0.028399 235 0.082959C234.675 0.028399 234.341 0 234 0H6Z" fill="#F0F0FF"></path> <path d="M10.2722 19V11.59H11.0222V14.77H14.2922V11.59H15.0422V19H14.2922V15.51H11.0222V19H10.2722ZM17.5948 19.06C17.0348 19.06 16.6281 18.9167 16.3748 18.63C16.1214 18.3433 15.9948 17.9167 15.9948 17.35C15.9948 16.5767 16.2214 16.0467 16.6748 15.76C17.1281 15.4733 17.8481 15.33 18.8348 15.33H19.0748C19.0614 14.8767 18.9848 14.5533 18.8448 14.36C18.7048 14.16 18.4281 14.06 18.0148 14.06C17.5148 14.06 17.0648 14.16 16.6648 14.36L16.3548 13.76C16.8348 13.5133 17.4081 13.39 18.0748 13.39C18.7614 13.39 19.2181 13.54 19.4448 13.84C19.6781 14.14 19.7948 14.6467 19.7948 15.36V17.78C19.7948 18.02 19.8181 18.1767 19.8648 18.25C19.9181 18.3167 20.0448 18.35 20.2448 18.35V19C20.2048 19.0067 20.1414 19.01 20.0548 19.01C19.7548 19.01 19.5414 18.97 19.4148 18.89C19.2948 18.8033 19.2148 18.6533 19.1748 18.44C18.8814 18.8533 18.3548 19.06 17.5948 19.06ZM17.7348 18.44C18.6281 18.44 19.0748 17.9133 19.0748 16.86V15.96H18.8448C18.0514 15.96 17.4948 16.0467 17.1748 16.22C16.8548 16.3933 16.6948 16.75 16.6948 17.29C16.6948 17.7167 16.7814 18.0167 16.9548 18.19C17.1281 18.3567 17.3881 18.44 17.7348 18.44ZM21.1755 19V13.49H21.9155V18.37H24.1855V13.49H24.9155V18.37H27.1855V13.49H27.9155V19H21.1755ZM30.4463 19.06C29.8863 19.06 29.4797 18.9167 29.2263 18.63C28.973 18.3433 28.8463 17.9167 28.8463 17.35C28.8463 16.5767 29.073 16.0467 29.5263 15.76C29.9797 15.4733 30.6997 15.33 31.6863 15.33H31.9263C31.913 14.8767 31.8363 14.5533 31.6963 14.36C31.5563 14.16 31.2797 14.06 30.8663 14.06C30.3663 14.06 29.9163 14.16 29.5163 14.36L29.2063 13.76C29.6863 13.5133 30.2597 13.39 30.9263 13.39C31.613 13.39 32.0697 13.54 32.2963 13.84C32.5297 14.14 32.6463 14.6467 32.6463 15.36V17.78C32.6463 18.02 32.6697 18.1767 32.7163 18.25C32.7697 18.3167 32.8963 18.35 33.0963 18.35V19C33.0563 19.0067 32.993 19.01 32.9063 19.01C32.6063 19.01 32.393 18.97 32.2663 18.89C32.1463 18.8033 32.0663 18.6533 32.0263 18.44C31.733 18.8533 31.2063 19.06 30.4463 19.06ZM30.5863 18.44C31.4797 18.44 31.9263 17.9133 31.9263 16.86V15.96H31.6963C30.903 15.96 30.3463 16.0467 30.0263 16.22C29.7063 16.3933 29.5463 16.75 29.5463 17.29C29.5463 17.7167 29.633 18.0167 29.8063 18.19C29.9797 18.3567 30.2397 18.44 30.5863 18.44ZM37.1632 19.1C36.6232 19.1 36.1132 18.8967 35.6332 18.49L35.9732 17.94C36.3332 18.28 36.7065 18.45 37.0932 18.45C37.5865 18.45 37.9365 18.3 38.1432 18C38.3565 17.7 38.4732 17.21 38.4932 16.53H36.0832V15.89H38.4932C38.4665 15.2367 38.3465 14.7633 38.1332 14.47C37.9199 14.1767 37.5765 14.03 37.1032 14.03C36.6765 14.03 36.3132 14.2 36.0132 14.54L35.6532 13.95C36.0465 13.5567 36.5365 13.36 37.1232 13.36C37.9099 13.36 38.4565 13.5933 38.7632 14.06C39.0699 14.52 39.2232 15.2433 39.2232 16.23C39.2232 17.2233 39.0699 17.95 38.7632 18.41C38.4632 18.87 37.9299 19.1 37.1632 19.1ZM40.1305 19V13.49H40.8605V15.66H41.4905L42.8505 13.49H43.6405L42.0705 15.99L43.7905 19H43.0005L41.5005 16.36H40.8605V19H40.1305ZM46.0828 19.08C45.6628 19.08 45.3128 19.0167 45.0328 18.89C44.7595 18.7567 44.5495 18.56 44.4028 18.3C44.2561 18.0333 44.1528 17.74 44.0928 17.42C44.0395 17.0933 44.0128 16.6967 44.0128 16.23C44.0128 15.2767 44.1561 14.5667 44.4428 14.1C44.7361 13.6333 45.2928 13.4 46.1128 13.4C46.6128 13.4 47.0428 13.4867 47.4028 13.66L47.0928 14.3C46.7995 14.1533 46.4828 14.08 46.1428 14.08C45.6028 14.08 45.2361 14.2567 45.0428 14.61C44.8495 14.9567 44.7528 15.5033 44.7528 16.25C44.7528 16.9967 44.8495 17.5467 45.0428 17.9C45.2361 18.2533 45.6061 18.43 46.1528 18.43C46.4928 18.43 46.8428 18.34 47.2028 18.16L47.4928 18.73C47.0261 18.9633 46.5561 19.08 46.0828 19.08ZM48.3044 19V13.49H52.0944V19H51.3744V14.12H49.0344V19H48.3044ZM55.126 19.07C54.7793 19.07 54.4793 19.0267 54.226 18.94C53.9793 18.8467 53.7793 18.7233 53.626 18.57C53.4727 18.4167 53.3527 18.2167 53.266 17.97C53.1793 17.7167 53.1193 17.4567 53.086 17.19C53.0593 16.9233 53.046 16.6033 53.046 16.23C53.046 15.29 53.1927 14.5833 53.486 14.11C53.7793 13.6367 54.326 13.4 55.126 13.4C55.326 13.4 55.506 13.4167 55.666 13.45C55.8327 13.4767 55.976 13.5167 56.096 13.57C56.216 13.6233 56.3227 13.6933 56.416 13.78C56.5093 13.86 56.586 13.9567 56.646 14.07C56.706 14.1767 56.756 14.2967 56.796 14.43C56.8427 14.5567 56.876 14.7 56.896 14.86C56.916 15.0133 56.9293 15.18 56.936 15.36C56.9493 15.5333 56.956 15.72 56.956 15.92C56.956 16.1133 56.956 16.32 56.956 16.54H53.746C53.7593 17.1933 53.8627 17.6733 54.056 17.98C54.2493 18.28 54.616 18.43 55.156 18.43C55.636 18.43 56.096 18.3233 56.536 18.11L56.826 18.68C56.346 18.94 55.7793 19.07 55.126 19.07ZM55.116 14.05C54.6093 14.05 54.2593 14.2 54.066 14.5C53.8727 14.8 53.766 15.2567 53.746 15.87H56.276C56.2693 15.6633 56.2627 15.53 56.256 15.47C56.256 15.41 56.2493 15.3 56.236 15.14C56.2293 14.9733 56.216 14.8633 56.196 14.81C56.176 14.7567 56.146 14.6733 56.106 14.56C56.0727 14.4467 56.0293 14.37 55.976 14.33C55.9227 14.29 55.856 14.2433 55.776 14.19C55.696 14.13 55.5993 14.0933 55.486 14.08C55.3793 14.06 55.256 14.05 55.116 14.05ZM57.9045 20.58V13.53L58.4845 13.49L58.5445 14.1C58.8045 13.6333 59.3745 13.4 60.2545 13.4C60.5678 13.4 60.8378 13.4533 61.0645 13.56C61.2911 13.66 61.4678 13.7933 61.5945 13.96C61.7278 14.12 61.8311 14.3333 61.9045 14.6C61.9778 14.86 62.0245 15.1133 62.0445 15.36C62.0645 15.6 62.0745 15.89 62.0745 16.23C62.0745 16.57 62.0611 16.8667 62.0345 17.12C62.0145 17.3667 61.9678 17.62 61.8945 17.88C61.8211 18.14 61.7178 18.3533 61.5845 18.52C61.4578 18.68 61.2778 18.8133 61.0445 18.92C60.8178 19.02 60.5478 19.07 60.2345 19.07C59.7745 19.07 59.4245 19.02 59.1845 18.92C58.9445 18.8133 58.7611 18.6533 58.6345 18.44V20.58H57.9045ZM60.0545 18.42C60.3278 18.42 60.5511 18.37 60.7245 18.27C60.9045 18.1633 61.0378 18.0067 61.1245 17.8C61.2111 17.5867 61.2678 17.3633 61.2945 17.13C61.3278 16.8967 61.3445 16.6067 61.3445 16.26C61.3445 15.9133 61.3278 15.6233 61.2945 15.39C61.2678 15.1567 61.2111 14.9333 61.1245 14.72C61.0445 14.5067 60.9145 14.3467 60.7345 14.24C60.5545 14.1333 60.3278 14.08 60.0545 14.08C59.8011 14.08 59.5845 14.12 59.4045 14.2C59.2245 14.2733 59.0845 14.37 58.9845 14.49C58.8845 14.6033 58.8078 14.7633 58.7545 14.97C58.7011 15.1767 58.6678 15.3733 58.6545 15.56C58.6411 15.74 58.6345 15.9733 58.6345 16.26C58.6345 16.5467 58.6411 16.7833 58.6545 16.97C58.6678 17.15 58.7011 17.3433 58.7545 17.55C58.8078 17.75 58.8845 17.9067 58.9845 18.02C59.0845 18.1333 59.2211 18.23 59.3945 18.31C59.5745 18.3833 59.7945 18.42 60.0545 18.42ZM64.0263 19V14.14H62.4063V13.49H66.3963V14.14H64.7663V19H64.0263ZM67.1325 19V13.49H67.8725V15.8H70.2025V13.49H70.9225V19H70.2025V16.47H67.8725V19H67.1325ZM74.0039 19.08C73.5639 19.08 73.1972 19.01 72.9039 18.87C72.6172 18.73 72.4006 18.5233 72.2539 18.25C72.1139 17.97 72.0172 17.6767 71.9639 17.37C71.9106 17.0567 71.8839 16.6767 71.8839 16.23C71.8839 15.79 71.9106 15.4167 71.9639 15.11C72.0172 14.7967 72.1139 14.5033 72.2539 14.23C72.3939 13.9567 72.6106 13.75 72.9039 13.61C73.1972 13.47 73.5639 13.4 74.0039 13.4C74.4506 13.4 74.8172 13.47 75.1039 13.61C75.3972 13.75 75.6139 13.96 75.7539 14.24C75.9006 14.5133 76.0006 14.8033 76.0539 15.11C76.1072 15.4167 76.1339 15.79 76.1339 16.23C76.1339 16.6767 76.1072 17.0567 76.0539 17.37C76.0006 17.6833 75.9006 17.98 75.7539 18.26C75.6139 18.5333 75.3972 18.74 75.1039 18.88C74.8172 19.0133 74.4506 19.08 74.0039 19.08ZM74.0039 18.43C74.2506 18.43 74.4606 18.3933 74.6339 18.32C74.8072 18.24 74.9406 18.14 75.0339 18.02C75.1339 17.9 75.2106 17.74 75.2639 17.54C75.3172 17.3333 75.3506 17.1367 75.3639 16.95C75.3839 16.7633 75.3939 16.5333 75.3939 16.26C75.3939 15.98 75.3839 15.7467 75.3639 15.56C75.3506 15.3667 75.3172 15.17 75.2639 14.97C75.2106 14.77 75.1339 14.61 75.0339 14.49C74.9406 14.37 74.8072 14.2733 74.6339 14.2C74.4606 14.12 74.2506 14.08 74.0039 14.08C73.7039 14.08 73.4572 14.1333 73.2639 14.24C73.0706 14.3467 72.9272 14.51 72.8339 14.73C72.7472 14.9433 72.6872 15.1667 72.6539 15.4C72.6272 15.6267 72.6139 15.9133 72.6139 16.26C72.6139 16.6067 72.6272 16.8933 72.6539 17.12C72.6872 17.3467 72.7472 17.57 72.8339 17.79C72.9272 18.0033 73.0706 18.1633 73.2639 18.27C73.4572 18.3767 73.7039 18.43 74.0039 18.43ZM78.9539 19.08C78.5339 19.08 78.1839 19.0167 77.9039 18.89C77.6306 18.7567 77.4206 18.56 77.2739 18.3C77.1272 18.0333 77.0239 17.74 76.9639 17.42C76.9106 17.0933 76.8839 16.6967 76.8839 16.23C76.8839 15.2767 77.0272 14.5667 77.3139 14.1C77.6072 13.6333 78.1639 13.4 78.9839 13.4C79.4839 13.4 79.9139 13.4867 80.2739 13.66L79.9639 14.3C79.6706 14.1533 79.3539 14.08 79.0139 14.08C78.4739 14.08 78.1072 14.2567 77.9139 14.61C77.7206 14.9567 77.6239 15.5033 77.6239 16.25C77.6239 16.9967 77.7206 17.5467 77.9139 17.9C78.1072 18.2533 78.4772 18.43 79.0239 18.43C79.3639 18.43 79.7139 18.34 80.0739 18.16L80.3639 18.73C79.8972 18.9633 79.4272 19.08 78.9539 19.08ZM82.3955 19V14.14H80.7755V13.49H84.7655V14.14H83.1355V19H82.3955ZM85.5216 19V13.49H86.2616V15.22H87.7616C88.3216 15.22 88.7316 15.3733 88.9916 15.68C89.2583 15.9867 89.3916 16.45 89.3916 17.07C89.3916 18.3567 88.8483 19 87.7616 19H85.5216ZM86.2616 18.37H87.6816C88.3216 18.37 88.6416 17.9467 88.6416 17.1C88.6416 16.6533 88.5616 16.3333 88.4016 16.14C88.2483 15.94 88.005 15.84 87.6716 15.84H86.2616V18.37ZM92.172 19V13.49H94.382C94.9087 13.49 95.2887 13.5867 95.522 13.78C95.7554 13.9733 95.872 14.31 95.872 14.79C95.872 15.5033 95.6587 15.9367 95.232 16.09C95.4987 16.17 95.6887 16.32 95.802 16.54C95.9154 16.7533 95.972 17.0633 95.972 17.47C95.972 18.0633 95.8454 18.4667 95.592 18.68C95.3387 18.8933 94.922 19 94.342 19H92.172ZM92.842 18.35H94.312C94.672 18.35 94.9254 18.29 95.072 18.17C95.2187 18.05 95.292 17.7967 95.292 17.41C95.292 17.0433 95.2154 16.8 95.062 16.68C94.9154 16.56 94.6587 16.5 94.292 16.5H92.842V18.35ZM92.842 15.85H94.322C94.6487 15.85 94.872 15.7733 94.992 15.62C95.1187 15.4667 95.182 15.23 95.182 14.91C95.182 14.6033 95.1187 14.3967 94.992 14.29C94.8654 14.1833 94.642 14.13 94.322 14.13H92.842V15.85ZM98.7927 19V13.49H102.583V19H101.863V14.12H99.5227V19H98.7927ZM105.654 19.08C105.214 19.08 104.848 19.01 104.554 18.87C104.268 18.73 104.051 18.5233 103.904 18.25C103.764 17.97 103.668 17.6767 103.614 17.37C103.561 17.0567 103.534 16.6767 103.534 16.23C103.534 15.79 103.561 15.4167 103.614 15.11C103.668 14.7967 103.764 14.5033 103.904 14.23C104.044 13.9567 104.261 13.75 104.554 13.61C104.848 13.47 105.214 13.4 105.654 13.4C106.101 13.4 106.468 13.47 106.754 13.61C107.048 13.75 107.264 13.96 107.404 14.24C107.551 14.5133 107.651 14.8033 107.704 15.11C107.758 15.4167 107.784 15.79 107.784 16.23C107.784 16.6767 107.758 17.0567 107.704 17.37C107.651 17.6833 107.551 17.98 107.404 18.26C107.264 18.5333 107.048 18.74 106.754 18.88C106.468 19.0133 106.101 19.08 105.654 19.08ZM105.654 18.43C105.901 18.43 106.111 18.3933 106.284 18.32C106.458 18.24 106.591 18.14 106.684 18.02C106.784 17.9 106.861 17.74 106.914 17.54C106.968 17.3333 107.001 17.1367 107.014 16.95C107.034 16.7633 107.044 16.5333 107.044 16.26C107.044 15.98 107.034 15.7467 107.014 15.56C107.001 15.3667 106.968 15.17 106.914 14.97C106.861 14.77 106.784 14.61 106.684 14.49C106.591 14.37 106.458 14.2733 106.284 14.2C106.111 14.12 105.901 14.08 105.654 14.08C105.354 14.08 105.108 14.1333 104.914 14.24C104.721 14.3467 104.578 14.51 104.484 14.73C104.398 14.9433 104.338 15.1667 104.304 15.4C104.278 15.6267 104.264 15.9133 104.264 16.26C104.264 16.6067 104.278 16.8933 104.304 17.12C104.338 17.3467 104.398 17.57 104.484 17.79C104.578 18.0033 104.721 18.1633 104.914 18.27C105.108 18.3767 105.354 18.43 105.654 18.43ZM108.724 19V13.49H109.394V17.71L111.704 13.49H112.484L112.464 19H111.804V14.64L109.424 19H108.724ZM115.507 19.08C115.087 19.08 114.737 19.0167 114.457 18.89C114.183 18.7567 113.973 18.56 113.827 18.3C113.68 18.0333 113.577 17.74 113.517 17.42C113.463 17.0933 113.437 16.6967 113.437 16.23C113.437 15.2767 113.58 14.5667 113.867 14.1C114.16 13.6333 114.717 13.4 115.537 13.4C116.037 13.4 116.467 13.4867 116.827 13.66L116.517 14.3C116.223 14.1533 115.907 14.08 115.567 14.08C115.027 14.08 114.66 14.2567 114.467 14.61C114.273 14.9567 114.177 15.5033 114.177 16.25C114.177 16.9967 114.273 17.5467 114.467 17.9C114.66 18.2533 115.03 18.43 115.577 18.43C115.917 18.43 116.267 18.34 116.627 18.16L116.917 18.73C116.45 18.9633 115.98 19.08 115.507 19.08ZM117.728 19V13.49H118.458V15.66H119.088L120.448 13.49H121.238L119.668 15.99L121.388 19H120.598L119.098 16.36H118.458V19H117.728ZM123.73 19.08C123.29 19.08 122.924 19.01 122.63 18.87C122.344 18.73 122.127 18.5233 121.98 18.25C121.84 17.97 121.744 17.6767 121.69 17.37C121.637 17.0567 121.61 16.6767 121.61 16.23C121.61 15.79 121.637 15.4167 121.69 15.11C121.744 14.7967 121.84 14.5033 121.98 14.23C122.12 13.9567 122.337 13.75 122.63 13.61C122.924 13.47 123.29 13.4 123.73 13.4C124.177 13.4 124.544 13.47 124.83 13.61C125.124 13.75 125.34 13.96 125.48 14.24C125.627 14.5133 125.727 14.8033 125.78 15.11C125.834 15.4167 125.86 15.79 125.86 16.23C125.86 16.6767 125.834 17.0567 125.78 17.37C125.727 17.6833 125.627 17.98 125.48 18.26C125.34 18.5333 125.124 18.74 124.83 18.88C124.544 19.0133 124.177 19.08 123.73 19.08ZM123.73 18.43C123.977 18.43 124.187 18.3933 124.36 18.32C124.534 18.24 124.667 18.14 124.76 18.02C124.86 17.9 124.937 17.74 124.99 17.54C125.044 17.3333 125.077 17.1367 125.09 16.95C125.11 16.7633 125.12 16.5333 125.12 16.26C125.12 15.98 125.11 15.7467 125.09 15.56C125.077 15.3667 125.044 15.17 124.99 14.97C124.937 14.77 124.86 14.61 124.76 14.49C124.667 14.37 124.534 14.2733 124.36 14.2C124.187 14.12 123.977 14.08 123.73 14.08C123.43 14.08 123.184 14.1333 122.99 14.24C122.797 14.3467 122.654 14.51 122.56 14.73C122.474 14.9433 122.414 15.1667 122.38 15.4C122.354 15.6267 122.34 15.9133 122.34 16.26C122.34 16.6067 122.354 16.8933 122.38 17.12C122.414 17.3467 122.474 17.57 122.56 17.79C122.654 18.0033 122.797 18.1633 122.99 18.27C123.184 18.3767 123.43 18.43 123.73 18.43ZM126.82 19V13.49H129.03C129.557 13.49 129.937 13.5867 130.17 13.78C130.404 13.9733 130.52 14.31 130.52 14.79C130.52 15.5033 130.307 15.9367 129.88 16.09C130.147 16.17 130.337 16.32 130.45 16.54C130.564 16.7533 130.62 17.0633 130.62 17.47C130.62 18.0633 130.494 18.4667 130.24 18.68C129.987 18.8933 129.57 19 128.99 19H126.82ZM127.49 18.35H128.96C129.32 18.35 129.574 18.29 129.72 18.17C129.867 18.05 129.94 17.7967 129.94 17.41C129.94 17.0433 129.864 16.8 129.71 16.68C129.564 16.56 129.307 16.5 128.94 16.5H127.49V18.35ZM127.49 15.85H128.97C129.297 15.85 129.52 15.7733 129.64 15.62C129.767 15.4667 129.83 15.23 129.83 14.91C129.83 14.6033 129.767 14.3967 129.64 14.29C129.514 14.1833 129.29 14.13 128.97 14.13H127.49V15.85ZM133.545 19.08C133.105 19.08 132.738 19.01 132.445 18.87C132.158 18.73 131.942 18.5233 131.795 18.25C131.655 17.97 131.558 17.6767 131.505 17.37C131.452 17.0567 131.425 16.6767 131.425 16.23C131.425 15.79 131.452 15.4167 131.505 15.11C131.558 14.7967 131.655 14.5033 131.795 14.23C131.935 13.9567 132.152 13.75 132.445 13.61C132.738 13.47 133.105 13.4 133.545 13.4C133.992 13.4 134.358 13.47 134.645 13.61C134.938 13.75 135.155 13.96 135.295 14.24C135.442 14.5133 135.542 14.8033 135.595 15.11C135.648 15.4167 135.675 15.79 135.675 16.23C135.675 16.6767 135.648 17.0567 135.595 17.37C135.542 17.6833 135.442 17.98 135.295 18.26C135.155 18.5333 134.938 18.74 134.645 18.88C134.358 19.0133 133.992 19.08 133.545 19.08ZM133.545 18.43C133.792 18.43 134.002 18.3933 134.175 18.32C134.348 18.24 134.482 18.14 134.575 18.02C134.675 17.9 134.752 17.74 134.805 17.54C134.858 17.3333 134.892 17.1367 134.905 16.95C134.925 16.7633 134.935 16.5333 134.935 16.26C134.935 15.98 134.925 15.7467 134.905 15.56C134.892 15.3667 134.858 15.17 134.805 14.97C134.752 14.77 134.675 14.61 134.575 14.49C134.482 14.37 134.348 14.2733 134.175 14.2C134.002 14.12 133.792 14.08 133.545 14.08C133.245 14.08 132.998 14.1333 132.805 14.24C132.612 14.3467 132.468 14.51 132.375 14.73C132.288 14.9433 132.228 15.1667 132.195 15.4C132.168 15.6267 132.155 15.9133 132.155 16.26C132.155 16.6067 132.168 16.8933 132.195 17.12C132.228 17.3467 132.288 17.57 132.375 17.79C132.468 18.0033 132.612 18.1633 132.805 18.27C132.998 18.3767 133.245 18.43 133.545 18.43ZM136.615 19V13.49H137.495L138.945 17.96L140.415 13.49H141.265V19H140.575V14.85L139.225 19H138.625L137.275 14.85V19H136.615ZM144.232 19V13.49H145.112L146.562 17.96L148.032 13.49H148.882V19H148.192V14.85L146.842 19H146.242L144.892 14.85V19H144.232ZM151.413 19.06C150.853 19.06 150.446 18.9167 150.193 18.63C149.94 18.3433 149.813 17.9167 149.813 17.35C149.813 16.5767 150.04 16.0467 150.493 15.76C150.946 15.4733 151.666 15.33 152.653 15.33H152.893C152.88 14.8767 152.803 14.5533 152.663 14.36C152.523 14.16 152.246 14.06 151.833 14.06C151.333 14.06 150.883 14.16 150.483 14.36L150.173 13.76C150.653 13.5133 151.226 13.39 151.893 13.39C152.58 13.39 153.036 13.54 153.263 13.84C153.496 14.14 153.613 14.6467 153.613 15.36V17.78C153.613 18.02 153.636 18.1767 153.683 18.25C153.736 18.3167 153.863 18.35 154.063 18.35V19C154.023 19.0067 153.96 19.01 153.873 19.01C153.573 19.01 153.36 18.97 153.233 18.89C153.113 18.8033 153.033 18.6533 152.993 18.44C152.7 18.8533 152.173 19.06 151.413 19.06ZM151.553 18.44C152.446 18.44 152.893 17.9133 152.893 16.86V15.96H152.663C151.87 15.96 151.313 16.0467 150.993 16.22C150.673 16.3933 150.513 16.75 150.513 17.29C150.513 17.7167 150.6 18.0167 150.773 18.19C150.946 18.3567 151.206 18.44 151.553 18.44ZM155.014 20.58V13.53L155.594 13.49L155.654 14.1C155.914 13.6333 156.484 13.4 157.364 13.4C157.677 13.4 157.947 13.4533 158.174 13.56C158.4 13.66 158.577 13.7933 158.704 13.96C158.837 14.12 158.94 14.3333 159.014 14.6C159.087 14.86 159.134 15.1133 159.154 15.36C159.174 15.6 159.184 15.89 159.184 16.23C159.184 16.57 159.17 16.8667 159.144 17.12C159.124 17.3667 159.077 17.62 159.004 17.88C158.93 18.14 158.827 18.3533 158.694 18.52C158.567 18.68 158.387 18.8133 158.154 18.92C157.927 19.02 157.657 19.07 157.344 19.07C156.884 19.07 156.534 19.02 156.294 18.92C156.054 18.8133 155.87 18.6533 155.744 18.44V20.58H155.014ZM157.164 18.42C157.437 18.42 157.66 18.37 157.834 18.27C158.014 18.1633 158.147 18.0067 158.234 17.8C158.32 17.5867 158.377 17.3633 158.404 17.13C158.437 16.8967 158.454 16.6067 158.454 16.26C158.454 15.9133 158.437 15.6233 158.404 15.39C158.377 15.1567 158.32 14.9333 158.234 14.72C158.154 14.5067 158.024 14.3467 157.844 14.24C157.664 14.1333 157.437 14.08 157.164 14.08C156.91 14.08 156.694 14.12 156.514 14.2C156.334 14.2733 156.194 14.37 156.094 14.49C155.994 14.6033 155.917 14.7633 155.864 14.97C155.81 15.1767 155.777 15.3733 155.764 15.56C155.75 15.74 155.744 15.9733 155.744 16.26C155.744 16.5467 155.75 16.7833 155.764 16.97C155.777 17.15 155.81 17.3433 155.864 17.55C155.917 17.75 155.994 17.9067 156.094 18.02C156.194 18.1333 156.33 18.23 156.504 18.31C156.684 18.3833 156.904 18.42 157.164 18.42ZM160.131 19V13.49H160.861V15.66H161.491L162.851 13.49H163.641L162.071 15.99L163.791 19H163.001L161.501 16.36H160.861V19H160.131ZM166.093 19.07C165.746 19.07 165.446 19.0267 165.193 18.94C164.946 18.8467 164.746 18.7233 164.593 18.57C164.439 18.4167 164.319 18.2167 164.233 17.97C164.146 17.7167 164.086 17.4567 164.053 17.19C164.026 16.9233 164.013 16.6033 164.013 16.23C164.013 15.29 164.159 14.5833 164.453 14.11C164.746 13.6367 165.293 13.4 166.093 13.4C166.293 13.4 166.473 13.4167 166.633 13.45C166.799 13.4767 166.943 13.5167 167.063 13.57C167.183 13.6233 167.289 13.6933 167.383 13.78C167.476 13.86 167.553 13.9567 167.613 14.07C167.673 14.1767 167.723 14.2967 167.763 14.43C167.809 14.5567 167.843 14.7 167.863 14.86C167.883 15.0133 167.896 15.18 167.903 15.36C167.916 15.5333 167.923 15.72 167.923 15.92C167.923 16.1133 167.923 16.32 167.923 16.54H164.713C164.726 17.1933 164.829 17.6733 165.023 17.98C165.216 18.28 165.583 18.43 166.123 18.43C166.603 18.43 167.063 18.3233 167.503 18.11L167.793 18.68C167.313 18.94 166.746 19.07 166.093 19.07ZM166.083 14.05C165.576 14.05 165.226 14.2 165.033 14.5C164.839 14.8 164.733 15.2567 164.713 15.87H167.243C167.236 15.6633 167.229 15.53 167.223 15.47C167.223 15.41 167.216 15.3 167.203 15.14C167.196 14.9733 167.183 14.8633 167.163 14.81C167.143 14.7567 167.113 14.6733 167.073 14.56C167.039 14.4467 166.996 14.37 166.943 14.33C166.889 14.29 166.823 14.2433 166.743 14.19C166.663 14.13 166.566 14.0933 166.453 14.08C166.346 14.06 166.223 14.05 166.083 14.05ZM170.003 19V14.14H168.383V13.49H172.373V14.14H170.743V19H170.003ZM173.109 19V13.49H173.779V17.71L176.089 13.49H176.869L176.849 19H176.189V14.64L173.809 19H173.109ZM178.011 19V13.49H178.751V15.8H181.081V13.49H181.801V19H181.081V16.47H178.751V19H178.011ZM182.953 19V13.49H186.153V14.14H183.623V19H182.953ZM188.603 19.07C188.256 19.07 187.956 19.0267 187.703 18.94C187.456 18.8467 187.256 18.7233 187.103 18.57C186.949 18.4167 186.829 18.2167 186.743 17.97C186.656 17.7167 186.596 17.4567 186.563 17.19C186.536 16.9233 186.523 16.6033 186.523 16.23C186.523 15.29 186.669 14.5833 186.963 14.11C187.256 13.6367 187.803 13.4 188.603 13.4C188.803 13.4 188.983 13.4167 189.143 13.45C189.309 13.4767 189.453 13.5167 189.573 13.57C189.693 13.6233 189.799 13.6933 189.893 13.78C189.986 13.86 190.063 13.9567 190.123 14.07C190.183 14.1767 190.233 14.2967 190.273 14.43C190.319 14.5567 190.353 14.7 190.373 14.86C190.393 15.0133 190.406 15.18 190.413 15.36C190.426 15.5333 190.433 15.72 190.433 15.92C190.433 16.1133 190.433 16.32 190.433 16.54H187.223C187.236 17.1933 187.339 17.6733 187.533 17.98C187.726 18.28 188.093 18.43 188.633 18.43C189.113 18.43 189.573 18.3233 190.013 18.11L190.303 18.68C189.823 18.94 189.256 19.07 188.603 19.07ZM188.593 14.05C188.086 14.05 187.736 14.2 187.543 14.5C187.349 14.8 187.243 15.2567 187.223 15.87H189.753C189.746 15.6633 189.739 15.53 189.733 15.47C189.733 15.41 189.726 15.3 189.713 15.14C189.706 14.9733 189.693 14.8633 189.673 14.81C189.653 14.7567 189.623 14.6733 189.583 14.56C189.549 14.4467 189.506 14.37 189.453 14.33C189.399 14.29 189.333 14.2433 189.253 14.19C189.173 14.13 189.076 14.0933 188.963 14.08C188.856 14.06 188.733 14.05 188.593 14.05ZM193.187 19V13.49H193.857V17.71L196.167 13.49H196.947L196.927 19H196.267V14.64L193.887 19H193.187ZM201.966 19.08C201.079 19.08 200.319 18.8867 199.686 18.5L200.066 17.92C200.652 18.2533 201.282 18.42 201.956 18.42C202.449 18.42 202.822 18.3133 203.076 18.1C203.336 17.88 203.466 17.57 203.466 17.17C203.466 16.7433 203.352 16.4267 203.126 16.22C202.899 16.0133 202.456 15.76 201.796 15.46C201.136 15.1667 200.662 14.8767 200.376 14.59C200.096 14.3033 199.956 13.8933 199.956 13.36C199.956 12.7867 200.132 12.3367 200.486 12.01C200.846 11.6767 201.369 11.51 202.056 11.51C202.756 11.51 203.376 11.6367 203.916 11.89L203.596 12.54C203.156 12.3267 202.646 12.22 202.066 12.22C201.606 12.22 201.262 12.32 201.036 12.52C200.809 12.72 200.696 12.9933 200.696 13.34C200.696 13.6933 200.786 13.96 200.966 14.14C201.152 14.32 201.542 14.55 202.136 14.83C202.549 15.0233 202.862 15.18 203.076 15.3C203.289 15.42 203.492 15.57 203.686 15.75C203.886 15.93 204.022 16.13 204.096 16.35C204.169 16.57 204.206 16.84 204.206 17.16C204.206 17.7667 204.012 18.24 203.626 18.58C203.246 18.9133 202.692 19.08 201.966 19.08ZM205.26 19V11.59H209.15V12.28H205.99V14.81H208.98V15.5H205.99V18.32H209.18V19H205.26ZM213.821 18.88C213.488 19.0133 213.085 19.08 212.611 19.08C212.138 19.08 211.731 19.0133 211.391 18.88C211.051 18.74 210.785 18.5667 210.591 18.36C210.398 18.1467 210.245 17.8667 210.131 17.52C210.025 17.1667 209.955 16.8267 209.921 16.5C209.895 16.1667 209.881 15.7667 209.881 15.3C209.881 14.8333 209.895 14.4367 209.921 14.11C209.955 13.7767 210.025 13.4367 210.131 13.09C210.245 12.7367 210.398 12.4533 210.591 12.24C210.785 12.0267 211.051 11.8533 211.391 11.72C211.731 11.58 212.138 11.51 212.611 11.51C213.085 11.51 213.488 11.58 213.821 11.72C214.161 11.8533 214.425 12.0267 214.611 12.24C214.805 12.4533 214.955 12.7333 215.061 13.08C215.175 13.4267 215.245 13.7667 215.271 14.1C215.305 14.4333 215.321 14.8333 215.321 15.3C215.321 15.7667 215.305 16.1667 215.271 16.5C215.245 16.8267 215.175 17.1667 215.061 17.52C214.955 17.8667 214.805 18.1467 214.611 18.36C214.425 18.5667 214.161 18.74 213.821 18.88ZM212.611 18.4C212.958 18.4 213.251 18.3467 213.491 18.24C213.738 18.1333 213.931 17.9967 214.071 17.83C214.211 17.6633 214.318 17.4367 214.391 17.15C214.471 16.8633 214.521 16.5867 214.541 16.32C214.561 16.0533 214.571 15.72 214.571 15.32C214.571 14.9267 214.558 14.5933 214.531 14.32C214.511 14.0467 214.461 13.77 214.381 13.49C214.308 13.2033 214.201 12.9767 214.061 12.81C213.928 12.6367 213.738 12.4967 213.491 12.39C213.251 12.2833 212.958 12.23 212.611 12.23C212.258 12.23 211.958 12.2833 211.711 12.39C211.471 12.4967 211.281 12.6333 211.141 12.8C211.001 12.9667 210.891 13.1967 210.811 13.49C210.738 13.7767 210.691 14.0533 210.671 14.32C210.651 14.5867 210.641 14.92 210.641 15.32C210.641 15.72 210.651 16.0533 210.671 16.32C210.691 16.5867 210.738 16.8633 210.811 17.15C210.891 17.4367 211.001 17.6633 211.141 17.83C211.281 17.9967 211.471 18.1333 211.711 18.24C211.958 18.3467 212.258 18.4 212.611 18.4ZM217.84 20.66V18.35H218.03C218.243 18.35 218.377 18.3033 218.43 18.21C218.49 18.11 218.52 17.9133 218.52 17.62V13.49H222.31V18.35H222.97V20.66H222.27V19H218.54V20.66H217.84ZM219.08 18.39H221.58V14.13H219.24V17.66C219.24 18.02 219.187 18.2633 219.08 18.39ZM223.601 19V18.35H223.771C223.985 18.35 224.118 18.3033 224.171 18.21C224.231 18.1167 224.261 17.9267 224.261 17.64V13.49H228.051V19H227.321V14.12H225.001V17.71C225.001 18.1833 224.925 18.52 224.771 18.72C224.625 18.9133 224.358 19.01 223.971 19.01C223.738 19.01 223.615 19.0067 223.601 19ZM229.123 19L230.073 16.87C229.393 16.7033 229.053 16.15 229.053 15.21C229.053 14.0633 229.556 13.49 230.563 13.49H233.003V19H232.263V16.92H230.843L229.913 19H229.123ZM230.673 16.28H232.263V14.13H230.693C230.399 14.13 230.176 14.21 230.023 14.37C229.876 14.53 229.803 14.8067 229.803 15.2C229.803 15.6 229.876 15.88 230.023 16.04C230.169 16.2 230.386 16.28 230.673 16.28ZM235.711 20.66V18.35H235.901C236.114 18.35 236.248 18.3033 236.301 18.21C236.361 18.11 236.391 17.9133 236.391 17.62V13.49H240.181V18.35H240.841V20.66H240.141V19H236.411V20.66H235.711ZM236.951 18.39H239.451V14.13H237.111V17.66C237.111 18.02 237.058 18.2633 236.951 18.39ZM243.457 19.08C243.017 19.08 242.65 19.01 242.357 18.87C242.07 18.73 241.854 18.5233 241.707 18.25C241.567 17.97 241.47 17.6767 241.417 17.37C241.364 17.0567 241.337 16.6767 241.337 16.23C241.337 15.79 241.364 15.4167 241.417 15.11C241.47 14.7967 241.567 14.5033 241.707 14.23C241.847 13.9567 242.064 13.75 242.357 13.61C242.65 13.47 243.017 13.4 243.457 13.4C243.904 13.4 244.27 13.47 244.557 13.61C244.85 13.75 245.067 13.96 245.207 14.24C245.354 14.5133 245.454 14.8033 245.507 15.11C245.56 15.4167 245.587 15.79 245.587 16.23C245.587 16.6767 245.56 17.0567 245.507 17.37C245.454 17.6833 245.354 17.98 245.207 18.26C245.067 18.5333 244.85 18.74 244.557 18.88C244.27 19.0133 243.904 19.08 243.457 19.08ZM243.457 18.43C243.704 18.43 243.914 18.3933 244.087 18.32C244.26 18.24 244.394 18.14 244.487 18.02C244.587 17.9 244.664 17.74 244.717 17.54C244.77 17.3333 244.804 17.1367 244.817 16.95C244.837 16.7633 244.847 16.5333 244.847 16.26C244.847 15.98 244.837 15.7467 244.817 15.56C244.804 15.3667 244.77 15.17 244.717 14.97C244.664 14.77 244.587 14.61 244.487 14.49C244.394 14.37 244.26 14.2733 244.087 14.2C243.914 14.12 243.704 14.08 243.457 14.08C243.157 14.08 242.91 14.1333 242.717 14.24C242.524 14.3467 242.38 14.51 242.287 14.73C242.2 14.9433 242.14 15.1667 242.107 15.4C242.08 15.6267 242.067 15.9133 242.067 16.26C242.067 16.6067 242.08 16.8933 242.107 17.12C242.14 17.3467 242.2 17.57 242.287 17.79C242.38 18.0033 242.524 18.1633 242.717 18.27C242.91 18.3767 243.157 18.43 243.457 18.43ZM248.407 19.08C247.987 19.08 247.637 19.0167 247.357 18.89C247.084 18.7567 246.874 18.56 246.727 18.3C246.58 18.0333 246.477 17.74 246.417 17.42C246.364 17.0933 246.337 16.6967 246.337 16.23C246.337 15.2767 246.48 14.5667 246.767 14.1C247.06 13.6333 247.617 13.4 248.437 13.4C248.937 13.4 249.367 13.4867 249.727 13.66L249.417 14.3C249.124 14.1533 248.807 14.08 248.467 14.08C247.927 14.08 247.56 14.2567 247.367 14.61C247.174 14.9567 247.077 15.5033 247.077 16.25C247.077 16.9967 247.174 17.5467 247.367 17.9C247.56 18.2533 247.93 18.43 248.477 18.43C248.817 18.43 249.167 18.34 249.527 18.16L249.817 18.73C249.35 18.9633 248.88 19.08 248.407 19.08ZM251.849 19V14.14H250.229V13.49H254.219V14.14H252.589V19H251.849ZM254.955 19V13.49H255.625V17.71L257.935 13.49H258.715L258.695 19H258.035V14.64L255.655 19H254.955ZM262.327 19V16.36H261.677L260.177 19H259.387L261.107 15.99L259.547 13.49H260.327L261.697 15.66H262.327V13.49H263.047V15.66H263.677L265.037 13.49H265.817L264.257 15.99L265.987 19H265.187L263.677 16.36H263.047V19H262.327ZM268.29 19.07C267.943 19.07 267.643 19.0267 267.39 18.94C267.143 18.8467 266.943 18.7233 266.79 18.57C266.637 18.4167 266.517 18.2167 266.43 17.97C266.343 17.7167 266.283 17.4567 266.25 17.19C266.223 16.9233 266.21 16.6033 266.21 16.23C266.21 15.29 266.357 14.5833 266.65 14.11C266.943 13.6367 267.49 13.4 268.29 13.4C268.49 13.4 268.67 13.4167 268.83 13.45C268.997 13.4767 269.14 13.5167 269.26 13.57C269.38 13.6233 269.487 13.6933 269.58 13.78C269.673 13.86 269.75 13.9567 269.81 14.07C269.87 14.1767 269.92 14.2967 269.96 14.43C270.007 14.5567 270.04 14.7 270.06 14.86C270.08 15.0133 270.093 15.18 270.1 15.36C270.113 15.5333 270.12 15.72 270.12 15.92C270.12 16.1133 270.12 16.32 270.12 16.54H266.91C266.923 17.1933 267.027 17.6733 267.22 17.98C267.413 18.28 267.78 18.43 268.32 18.43C268.8 18.43 269.26 18.3233 269.7 18.11L269.99 18.68C269.51 18.94 268.943 19.07 268.29 19.07ZM268.28 14.05C267.773 14.05 267.423 14.2 267.23 14.5C267.037 14.8 266.93 15.2567 266.91 15.87H269.44C269.433 15.6633 269.427 15.53 269.42 15.47C269.42 15.41 269.413 15.3 269.4 15.14C269.393 14.9733 269.38 14.8633 269.36 14.81C269.34 14.7567 269.31 14.6733 269.27 14.56C269.237 14.4467 269.193 14.37 269.14 14.33C269.087 14.29 269.02 14.2433 268.94 14.19C268.86 14.13 268.763 14.0933 268.65 14.08C268.543 14.06 268.42 14.05 268.28 14.05ZM271.049 19V13.49H271.789V15.8H274.119V13.49H274.839V19H274.119V16.47H271.789V19H271.049ZM275.99 19V13.49H276.66V17.71L278.97 13.49H279.75L279.73 19H279.07V14.64L276.69 19H275.99ZM280.812 19L281.762 16.87C281.082 16.7033 280.742 16.15 280.742 15.21C280.742 14.0633 281.246 13.49 282.252 13.49H284.692V19H283.952V16.92H282.532L281.602 19H280.812ZM282.362 16.28H283.952V14.13H282.382C282.089 14.13 281.866 14.21 281.712 14.37C281.566 14.53 281.492 14.8067 281.492 15.2C281.492 15.6 281.566 15.88 281.712 16.04C281.859 16.2 282.076 16.28 282.362 16.28ZM287.651 19V13.49H289.861C290.387 13.49 290.767 13.5867 291.001 13.78C291.234 13.9733 291.351 14.31 291.351 14.79C291.351 15.5033 291.137 15.9367 290.711 16.09C290.977 16.17 291.167 16.32 291.281 16.54C291.394 16.7533 291.451 17.0633 291.451 17.47C291.451 18.0633 291.324 18.4667 291.071 18.68C290.817 18.8933 290.401 19 289.821 19H287.651ZM288.321 18.35H289.791C290.151 18.35 290.404 18.29 290.551 18.17C290.697 18.05 290.771 17.7967 290.771 17.41C290.771 17.0433 290.694 16.8 290.541 16.68C290.394 16.56 290.137 16.5 289.771 16.5H288.321V18.35ZM288.321 15.85H289.801C290.127 15.85 290.351 15.7733 290.471 15.62C290.597 15.4667 290.661 15.23 290.661 14.91C290.661 14.6033 290.597 14.3967 290.471 14.29C290.344 14.1833 290.121 14.13 289.801 14.13H288.321V15.85ZM293.835 19.06C293.275 19.06 292.868 18.9167 292.615 18.63C292.362 18.3433 292.235 17.9167 292.235 17.35C292.235 16.5767 292.462 16.0467 292.915 15.76C293.368 15.4733 294.088 15.33 295.075 15.33H295.315C295.302 14.8767 295.225 14.5533 295.085 14.36C294.945 14.16 294.668 14.06 294.255 14.06C293.755 14.06 293.305 14.16 292.905 14.36L292.595 13.76C293.075 13.5133 293.648 13.39 294.315 13.39C295.002 13.39 295.458 13.54 295.685 13.84C295.918 14.14 296.035 14.6467 296.035 15.36V17.78C296.035 18.02 296.058 18.1767 296.105 18.25C296.158 18.3167 296.285 18.35 296.485 18.35V19C296.445 19.0067 296.382 19.01 296.295 19.01C295.995 19.01 295.782 18.97 295.655 18.89C295.535 18.8033 295.455 18.6533 295.415 18.44C295.122 18.8533 294.595 19.06 293.835 19.06ZM293.975 18.44C294.868 18.44 295.315 17.9133 295.315 16.86V15.96H295.085C294.292 15.96 293.735 16.0467 293.415 16.22C293.095 16.3933 292.935 16.75 292.935 17.29C292.935 17.7167 293.022 18.0167 293.195 18.19C293.368 18.3567 293.628 18.44 293.975 18.44ZM297.416 19V13.49H298.156V18.37H300.426V13.49H301.156V18.37H303.426V13.49H304.156V19H297.416ZM305.297 19V13.49H305.967V17.71L308.277 13.49H309.057L309.037 19H308.377V14.64L305.997 19H305.297ZM313.069 19L311.769 16.73L310.519 19H309.779L311.409 16.1L309.929 13.49H310.709L311.859 15.51L312.969 13.49H313.709L312.219 16.14L313.849 19H313.069ZM320.14 20.66V19H316.39V13.49H317.13V18.37H319.46V13.49H320.18V18.35H320.85V20.66H320.14ZM323.466 19.07C323.119 19.07 322.819 19.0267 322.566 18.94C322.319 18.8467 322.119 18.7233 321.966 18.57C321.813 18.4167 321.693 18.2167 321.606 17.97C321.519 17.7167 321.459 17.4567 321.426 17.19C321.399 16.9233 321.386 16.6033 321.386 16.23C321.386 15.29 321.533 14.5833 321.826 14.11C322.119 13.6367 322.666 13.4 323.466 13.4C323.666 13.4 323.846 13.4167 324.006 13.45C324.173 13.4767 324.316 13.5167 324.436 13.57C324.556 13.6233 324.663 13.6933 324.756 13.78C324.849 13.86 324.926 13.9567 324.986 14.07C325.046 14.1767 325.096 14.2967 325.136 14.43C325.183 14.5567 325.216 14.7 325.236 14.86C325.256 15.0133 325.269 15.18 325.276 15.36C325.289 15.5333 325.296 15.72 325.296 15.92C325.296 16.1133 325.296 16.32 325.296 16.54H322.086C322.099 17.1933 322.203 17.6733 322.396 17.98C322.589 18.28 322.956 18.43 323.496 18.43C323.976 18.43 324.436 18.3233 324.876 18.11L325.166 18.68C324.686 18.94 324.119 19.07 323.466 19.07ZM323.456 14.05C322.949 14.05 322.599 14.2 322.406 14.5C322.213 14.8 322.106 15.2567 322.086 15.87H324.616C324.609 15.6633 324.603 15.53 324.596 15.47C324.596 15.41 324.589 15.3 324.576 15.14C324.569 14.9733 324.556 14.8633 324.536 14.81C324.516 14.7567 324.486 14.6733 324.446 14.56C324.413 14.4467 324.369 14.37 324.316 14.33C324.263 14.29 324.196 14.2433 324.116 14.19C324.036 14.13 323.939 14.0933 323.826 14.08C323.719 14.06 323.596 14.05 323.456 14.05ZM325.916 19V18.35H326.086C326.299 18.35 326.433 18.3033 326.486 18.21C326.546 18.1167 326.576 17.9267 326.576 17.64V13.49H330.366V19H329.636V14.12H327.316V17.71C327.316 18.1833 327.239 18.52 327.086 18.72C326.939 18.9133 326.673 19.01 326.286 19.01C326.053 19.01 325.929 19.0067 325.916 19ZM333.407 19.07C333.061 19.07 332.761 19.0267 332.507 18.94C332.261 18.8467 332.061 18.7233 331.907 18.57C331.754 18.4167 331.634 18.2167 331.547 17.97C331.461 17.7167 331.401 17.4567 331.367 17.19C331.341 16.9233 331.327 16.6033 331.327 16.23C331.327 15.29 331.474 14.5833 331.767 14.11C332.061 13.6367 332.607 13.4 333.407 13.4C333.607 13.4 333.787 13.4167 333.947 13.45C334.114 13.4767 334.257 13.5167 334.377 13.57C334.497 13.6233 334.604 13.6933 334.697 13.78C334.791 13.86 334.867 13.9567 334.927 14.07C334.987 14.1767 335.037 14.2967 335.077 14.43C335.124 14.5567 335.157 14.7 335.177 14.86C335.197 15.0133 335.211 15.18 335.217 15.36C335.231 15.5333 335.237 15.72 335.237 15.92C335.237 16.1133 335.237 16.32 335.237 16.54H332.027C332.041 17.1933 332.144 17.6733 332.337 17.98C332.531 18.28 332.897 18.43 333.437 18.43C333.917 18.43 334.377 18.3233 334.817 18.11L335.107 18.68C334.627 18.94 334.061 19.07 333.407 19.07ZM333.397 14.05C332.891 14.05 332.541 14.2 332.347 14.5C332.154 14.8 332.047 15.2567 332.027 15.87H334.557C334.551 15.6633 334.544 15.53 334.537 15.47C334.537 15.41 334.531 15.3 334.517 15.14C334.511 14.9733 334.497 14.8633 334.477 14.81C334.457 14.7567 334.427 14.6733 334.387 14.56C334.354 14.4467 334.311 14.37 334.257 14.33C334.204 14.29 334.137 14.2433 334.057 14.19C333.977 14.13 333.881 14.0933 333.767 14.08C333.661 14.06 333.537 14.05 333.397 14.05ZM336.166 19V13.49H336.836V17.71L339.146 13.49H339.926L339.906 19H339.246V14.64L336.866 19H336.166ZM339.116 12.61C338.902 12.83 338.546 12.94 338.046 12.94C337.546 12.94 337.186 12.83 336.966 12.61C336.746 12.39 336.606 12.07 336.546 11.65L337.106 11.56C337.152 11.8267 337.242 12.03 337.376 12.17C337.509 12.3033 337.732 12.37 338.046 12.37C338.352 12.37 338.572 12.3033 338.706 12.17C338.839 12.03 338.929 11.8267 338.976 11.56L339.536 11.64C339.469 12.0667 339.329 12.39 339.116 12.61Z" fill="#3333CC"></path> </svg> 