<?xml version="1.0" encoding="UTF-8"?> <svg xmlns="http://www.w3.org/2000/svg" width="14" height="15" viewBox="0 0 14 15" fill="none"> <path fill-rule="evenodd" clip-rule="evenodd" d="M7.24653 0C8.91502 0 10.4837 0.649746 11.6635 1.82956C12.8434 3.00938 13.4931 4.57802 13.4931 6.24653C13.4931 7.34974 13.1717 8.49838 12.5378 9.66056C12.0448 10.5643 11.3615 11.48 10.5067 12.3822C9.06619 13.9028 7.64257 14.8583 7.58266 14.8982C7.48088 14.9661 7.36372 15 7.24653 15C7.12935 15 7.01219 14.9661 6.91044 14.8982C6.85053 14.8583 5.4269 13.9028 3.98638 12.3822C3.13161 11.48 2.44826 10.5642 1.95534 9.66056C1.32145 8.49838 1 7.34974 1 6.24653C1 4.57802 1.64972 3.00938 2.82956 1.82956C4.00938 0.649746 5.57805 0 7.24653 0ZM4.75977 6.24639C4.75977 4.87553 5.87507 3.76025 7.2459 3.76025C8.61673 3.76025 9.73203 4.87553 9.73203 6.24639C9.73206 7.61725 8.61676 8.73252 7.2459 8.73252C5.87504 8.73252 4.75977 7.61722 4.75977 6.24639Z" fill="#000066"></path> </svg> 