<?xml version="1.0" encoding="UTF-8"?> <svg xmlns="http://www.w3.org/2000/svg" width="30" height="30" viewBox="0 0 30 30" fill="none"><g clip-path="url(#clip0_416_884)"><path d="M13.9162 0.0207227C11.6487 0.237551 9.9393 0.729809 8.08302 1.68503C5.25162 3.15007 2.96652 5.47658 1.55081 8.33638C1.00451 9.43224 0.751908 10.1062 0.46407 11.1845C0.111611 12.544 0.0058743 13.3703 0 14.8705C0 15.6207 0.0293714 16.4294 0.0704916 16.7458C0.393576 19.1485 1.14549 21.2172 2.40846 23.1511L2.83141 23.8015L1.89739 26.55C1.38046 28.0678 0.969258 29.3102 0.981006 29.3219C0.992754 29.3336 2.27335 28.9351 3.83592 28.437C5.39847 27.9389 6.69669 27.5287 6.72606 27.5287C6.74955 27.5287 6.99042 27.6634 7.26063 27.8334C7.53084 27.9975 8.09478 28.3022 8.51184 28.5014C12.3125 30.3123 16.6536 30.4705 20.5424 28.9292C24.9481 27.1888 28.3317 23.3737 29.5418 18.791C29.9119 17.3846 30 16.6169 30 14.9878C30 13.3586 29.9119 12.5909 29.5418 11.1845C28.1202 5.81063 23.8026 1.63228 18.3513 0.360614C17.4349 0.149647 16.4833 0.0383033 15.326 0.0207227C14.6798 0.00900226 14.0454 0.00900226 13.9162 0.0207227ZM10.3329 6.97095C10.4327 7.0237 10.5679 7.16435 10.6383 7.29328C10.8087 7.60386 12.242 11.0321 12.2831 11.2431C12.336 11.5068 12.0717 11.958 11.4901 12.6144C10.8792 13.3 10.75 13.5168 10.8028 13.763C10.9027 14.2084 12.2597 16.0074 13.0997 16.7986C14.3979 18.0234 16.3599 19.1895 17.2352 19.254C17.6875 19.2833 17.8461 19.1602 18.5392 18.246C18.8506 17.83 19.1796 17.4139 19.2794 17.3201C19.5026 17.0916 19.8375 17.0447 20.2193 17.1853C20.701 17.367 23.6558 18.8028 23.8673 18.961L24.067 19.1075L24.0317 19.7287C23.9495 21.3227 23.3855 22.1489 21.9052 22.8698C20.4954 23.5554 19.391 23.5378 17.2352 22.7936C14.3333 21.7915 12.8001 20.8363 10.7147 18.7442C9.66909 17.701 8.92893 16.8161 8.08302 15.6031C6.68493 13.6106 6.15039 12.0694 6.309 10.5047C6.43821 9.25059 6.87879 8.32467 7.7658 7.43977C8.19462 7.01198 8.75268 6.83617 9.59859 6.86546C9.95691 6.8772 10.2213 6.91236 10.3329 6.97095Z" fill="white"></path></g><defs><clipPath id="clip0_416_884"><rect width="30" height="30" fill="white"></rect></clipPath></defs></svg> 