<?xml version="1.0" encoding="UTF-8"?> <svg xmlns="http://www.w3.org/2000/svg" width="1000" height="1001" viewBox="0 0 1000 1001" fill="none"> <path d="M60.6575 282.823L60.6513 282.836L60.6451 282.848C42.7298 318.821 34.5521 340.676 25.1403 375.964C13.6201 420.454 10.1935 447.191 10 496.433C10.0005 521.45 10.9872 547.815 12.2636 557.676C22.8487 636.45 47.4226 704.04 88.6571 767.242L88.6626 767.25L88.6681 767.259L102.766 788.963L105.409 793.032L103.849 797.625L72.7157 889.332L72.7135 889.338C64.1041 914.642 56.3796 937.637 50.86 954.344C49.7229 957.785 48.681 960.955 47.7454 963.82C50.8065 962.88 54.2147 961.827 57.9302 960.673C75.1283 955.33 98.7949 947.859 124.824 939.553C150.87 931.242 174.724 923.66 192.192 918.156C200.923 915.404 208.077 913.166 213.117 911.613C215.631 910.839 217.651 910.225 219.088 909.801C219.799 909.591 220.419 909.413 220.906 909.28C221.14 909.217 221.42 909.143 221.696 909.078C221.829 909.046 222.046 908.997 222.302 908.949L222.31 908.948C222.407 908.929 223.215 908.772 224.202 908.772C225.921 908.772 227.292 909.235 227.539 909.319C227.55 909.322 227.559 909.325 227.566 909.327C228.055 909.489 228.48 909.664 228.77 909.788C229.369 910.045 230 910.353 230.582 910.649C231.778 911.257 233.284 912.08 234.962 913.032C238.326 914.94 242.69 917.546 247.281 920.434C255.988 925.721 274.426 935.698 288.039 942.208C412.244 1001.44 554.049 1006.6 681.059 956.21L681.069 956.206C824.96 899.305 935.529 774.522 975.058 624.676C987.142 578.704 990 553.957 990 500.324C990 446.688 987.141 421.941 975.055 375.963C928.62 200.272 787.574 63.6087 609.457 22.0083C579.697 15.1509 548.69 11.5005 510.715 10.923L510.701 10.9228L510.686 10.9225C488.914 10.5273 468.495 10.554 464.802 10.881C390.412 18.0041 334.684 34.0975 274.033 65.3361C181.547 113.239 106.905 189.308 60.6575 282.823Z" stroke="#F0F0FF" stroke-width="20"></path> <path d="M338.681 229.614C342.002 231.37 346.494 236.051 348.837 240.341C354.501 250.678 402.156 364.773 403.523 371.794C405.281 380.57 396.492 395.588 377.157 417.432C356.845 440.251 352.548 447.467 354.306 455.658C357.626 470.481 402.742 530.356 430.671 556.686C473.833 597.448 539.065 636.259 568.166 638.405C583.205 639.38 588.478 635.284 611.524 604.859C621.875 591.012 632.812 577.164 636.133 574.044C643.554 566.437 654.687 564.877 667.382 569.558C683.397 575.604 781.636 623.387 788.667 628.653L795.307 633.529L794.135 654.202C791.401 707.252 772.652 734.751 723.434 758.74C676.561 781.559 639.843 780.974 568.166 756.205C471.685 722.854 420.71 691.064 351.376 621.437C316.612 586.721 292.003 557.271 263.879 516.899C217.396 450.587 199.623 399.294 204.897 347.22C209.193 305.482 223.841 274.667 253.333 245.217C267.59 230.98 286.144 225.129 314.268 226.104C326.182 226.494 334.971 227.664 338.681 229.614Z" fill="#F0F0FF"></path> </svg> 