<?xml version="1.0" encoding="UTF-8"?> <svg xmlns="http://www.w3.org/2000/svg" width="163" height="23" viewBox="0 0 163 23" fill="none"><path d="M1 17.156V1.28H4.808V9.876L9.428 1.28H13.824L13.768 17.156H9.932V7.832L4.976 17.156H1Z" fill="white"></path><path d="M16.4492 17.156V1.28H21.5452L24.4852 11.22L27.4532 1.28H32.3252V17.156H28.4892V8.336L25.9412 17.156H22.6932L20.0892 8.308V17.156H16.4492Z" fill="white"></path><path d="M34.9609 17.156V1.28H48.0369V17.156H43.8649V4.892H39.1889V17.156H34.9609Z" fill="white"></path><path d="M51.2443 21.58V18.192H53.0363C53.3909 18.192 53.6429 18.136 53.7923 18.024C53.9416 17.9307 54.0536 17.7627 54.1283 17.52L54.2122 17.156L49.3683 1.28H53.7082L56.3963 11.024L59.0563 1.28H63.2283L57.9922 18.388C57.6003 19.676 57.0309 20.5253 56.2842 20.936C55.5562 21.3653 54.4643 21.58 53.0083 21.58H51.2443Z" fill="white"></path><path d="M63.3052 17.156V13.488H63.6133C64.1919 13.488 64.5559 13.3947 64.7052 13.208C64.8546 13.0213 64.9292 12.6107 64.9292 11.976V1.28H78.0052V17.156H73.8053V4.892H69.1572V12.536C69.1572 14.3093 68.8213 15.532 68.1493 16.204C67.4773 16.876 66.4132 17.212 64.9572 17.212C64.0426 17.212 63.4919 17.1933 63.3052 17.156Z" fill="white"></path><path d="M80.709 17.156V1.28H84.993V5.144H87.961C90.145 5.144 91.6663 5.65733 92.525 6.684C93.4023 7.692 93.841 9.12933 93.841 10.996C93.841 12.9 93.393 14.4027 92.497 15.504C91.6197 16.6053 90.0517 17.156 87.793 17.156H80.709ZM84.993 13.74H87.205C88.0077 13.74 88.5863 13.544 88.941 13.152C89.3143 12.7413 89.501 12.0787 89.501 11.164C89.501 10.212 89.3237 9.54933 88.969 9.176C88.633 8.784 88.045 8.588 87.205 8.588H84.993V13.74Z" fill="white"></path><path d="M102.123 17.38C99.5842 17.38 97.8389 16.708 96.8869 15.364C95.9349 14.02 95.4589 11.9573 95.4589 9.176C95.4589 7.81333 95.5522 6.66533 95.7389 5.732C95.9442 4.79867 96.2895 3.95867 96.7749 3.212C97.2789 2.46533 97.9882 1.91467 98.9029 1.56C99.8362 1.18667 100.994 1 102.375 1C104.13 1 105.595 1.28 106.771 1.84L104.923 5.508C104.214 5.13467 103.439 4.948 102.599 4.948C101.535 4.948 100.798 5.27467 100.387 5.928C99.9762 6.58133 99.7709 7.71067 99.7709 9.316C99.7709 10.9587 99.9762 12.1067 100.387 12.76C100.798 13.3947 101.563 13.712 102.683 13.712C103.448 13.712 104.335 13.4973 105.343 13.068L106.939 16.288C105.427 17.016 103.822 17.38 102.123 17.38Z" fill="white"></path><path d="M108.794 17.156V14.16H111.37V17.156H108.794Z" fill="white"></path><path d="M114.483 17.156V1.728H123.443V3.548H116.359V17.156H114.483Z" fill="white"></path><path d="M125.617 21.58V19.872H126.905C127.334 19.872 127.651 19.788 127.857 19.62C128.081 19.452 128.258 19.1627 128.389 18.752L128.809 17.212L124.133 1.728H126.177L129.873 14.244L133.541 1.728H135.529L130.237 19.172C129.957 20.1053 129.565 20.74 129.061 21.076C128.557 21.412 127.819 21.58 126.849 21.58H125.617Z" fill="white"></path><path d="M137.481 21.58V1.84L139.105 1.728L139.273 3.436C140.001 2.12933 141.597 1.476 144.061 1.476C144.938 1.476 145.694 1.62533 146.329 1.924C146.963 2.204 147.458 2.57733 147.813 3.044C148.186 3.492 148.475 4.08933 148.681 4.836C148.886 5.564 149.017 6.27333 149.073 6.964C149.129 7.636 149.157 8.448 149.157 9.4C149.157 10.352 149.119 11.1827 149.045 11.892C148.989 12.5827 148.858 13.292 148.653 14.02C148.447 14.748 148.158 15.3453 147.785 15.812C147.43 16.26 146.926 16.6333 146.273 16.932C145.638 17.212 144.882 17.352 144.005 17.352C142.717 17.352 141.737 17.212 141.065 16.932C140.393 16.6333 139.879 16.1853 139.525 15.588V21.58H137.481ZM143.501 15.532C144.266 15.532 144.891 15.392 145.377 15.112C145.881 14.8133 146.254 14.3747 146.497 13.796C146.739 13.1987 146.898 12.5733 146.973 11.92C147.066 11.2667 147.113 10.4547 147.113 9.484C147.113 8.51333 147.066 7.70133 146.973 7.048C146.898 6.39467 146.739 5.76933 146.497 5.172C146.273 4.57467 145.909 4.12667 145.405 3.828C144.901 3.52933 144.266 3.38 143.501 3.38C142.791 3.38 142.185 3.492 141.681 3.716C141.177 3.92133 140.785 4.192 140.505 4.528C140.225 4.84533 140.01 5.29333 139.861 5.872C139.711 6.45067 139.618 7.00133 139.581 7.524C139.543 8.028 139.525 8.68133 139.525 9.484C139.525 10.2867 139.543 10.9493 139.581 11.472C139.618 11.976 139.711 12.5173 139.861 13.096C140.01 13.656 140.225 14.0947 140.505 14.412C140.785 14.7293 141.167 15 141.653 15.224C142.157 15.4293 142.773 15.532 143.501 15.532Z" fill="white"></path><path d="M151.675 21.58V19.872H152.963C153.393 19.872 153.71 19.788 153.915 19.62C154.139 19.452 154.317 19.1627 154.447 18.752L154.867 17.212L150.191 1.728H152.235L155.931 14.244L159.599 1.728H161.587L156.295 19.172C156.015 20.1053 155.623 20.74 155.119 21.076C154.615 21.412 153.878 21.58 152.907 21.58H151.675Z" fill="white"></path></svg> 